<svg width="900" height="900" viewBox="0 0 900 900" fill="none" xmlns="http://www.w3.org/2000/svg">
  <rect width="900" height="900" rx="40" fill="#F8F5F0"/>
  <rect x="132" y="124" width="42" height="338" rx="21" fill="#AF2030"/>
  <rect x="204" y="124" width="42" height="338" rx="21" fill="#AF2030"/>
  <path d="M330 164L498 164L292 412H498" stroke="#F7B23E" stroke-width="34" stroke-linecap="round" stroke-linejoin="round"/>
  <path d="M518 164L686 164L480 412H686" stroke="#F7B23E" stroke-width="34" stroke-linecap="round" stroke-linejoin="round"/>
  <path d="M702 356C742 326 788 330 814 362C838 392 838 438 814 466C788 496 742 500 702 470" stroke="#F7B23E" stroke-width="18" stroke-linecap="round"/>
  <path d="M628 466C680 466 722 510 722 564V580H572V564C572 510 614 466 666 466H628Z" fill="#2472BC"/>
  <path d="M586 546H722" stroke="#4E8AC5" stroke-width="20" stroke-linecap="round"/>
  <path d="M594 520C642 498 680 496 730 514" stroke="#F6E1BF" stroke-width="20" stroke-linecap="round"/>
  <text x="450" y="724" text-anchor="middle" fill="#3F80BF" font-family="Arial, sans-serif" font-size="82">homestay &amp; coffee</text>
</svg>
